<svg width="100" height="36" viewBox="0 0 100 36" fill="none" xmlns="http://www.w3.org/2000/svg">
<path d="M3.58622 27.8286C2.76992 27.6874 1.99371 28.2347 1.85251 29.051C1.71132 29.8673 2.2586 30.6435 3.07491 30.7847L3.58622 27.8286ZM99.0546 0.377207L82.2433 4.54612L94.2593 17.0207L99.0546 0.377207ZM3.07491 30.7847C4.0767 30.958 5.06653 31.1231 6.04459 31.2801L6.52028 28.3181C5.5543 28.163 4.57634 27.9998 3.58622 27.8286L3.07491 30.7847ZM11.9169 32.1468C13.9363 32.4175 15.9022 32.652 17.8166 32.8516L18.1277 29.8678C16.2436 29.6713 14.3069 29.4404 12.3156 29.1734L11.9169 32.1468ZM23.7403 33.3715C25.7822 33.5156 27.761 33.6173 29.6795 33.6789L29.7758 30.6804C27.897 30.6201 25.9565 30.5204 23.9514 30.379L23.7403 33.3715ZM35.6197 33.7415C37.6935 33.7166 39.6908 33.641 41.6158 33.5183L41.4249 30.5243C39.5533 30.6437 37.6077 30.7174 35.5836 30.7418L35.6197 33.7415ZM47.5709 32.964C49.6374 32.7077 51.6122 32.3923 53.5019 32.0233L52.9269 29.0789C51.1076 29.4342 49.2015 29.7388 47.2016 29.9869L47.5709 32.964ZM59.342 30.6446C61.3588 30.081 63.2669 29.4514 65.0774 28.7646L64.0134 25.9596C62.2882 26.614 60.4657 27.2156 58.5346 27.7553L59.342 30.6446ZM70.6172 26.3506C72.4869 25.4235 74.2388 24.4341 75.8905 23.3972L74.2954 20.8563C72.7253 21.842 71.0609 22.782 69.2845 23.6628L70.6172 26.3506ZM80.8488 19.9403C82.4828 18.6842 84.0123 17.3902 85.4622 16.0805L83.4512 13.8543C82.0508 15.1194 80.5822 16.3612 79.0204 17.5619L80.8488 19.9403ZM89.7787 11.9439C91.2043 10.5091 92.5714 9.07738 93.9015 7.68664L91.7334 5.61314C90.3988 7.00856 89.0522 8.41867 87.6506 9.82938L89.7787 11.9439ZM3.84188 26.3505C2.20927 26.0681 0.656854 27.1627 0.374462 28.7953C0.0920695 30.4279 1.18664 31.9804 2.81925 32.2627L3.84188 26.3505ZM99.0546 0.377207L65.432 8.71503L89.464 33.6642L99.0546 0.377207ZM2.81925 32.2627C3.82687 32.437 4.82264 32.6031 5.80674 32.7612L6.75813 26.8371C5.79818 26.6829 4.82617 26.5208 3.84188 26.3505L2.81925 32.2627ZM11.7176 33.6335C13.751 33.9061 15.7315 34.1423 17.661 34.3435L18.2833 28.3759C16.4143 28.181 14.4922 27.9518 12.5149 27.6867L11.7176 33.6335ZM23.6347 34.8678C25.695 35.0132 27.693 35.1159 29.6314 35.1781L29.8239 29.1812C27.965 29.1215 26.0436 29.0228 24.057 28.8827L23.6347 34.8678ZM35.6378 35.2414C37.7364 35.2161 39.7595 35.1397 41.7112 35.0152L41.3294 29.0274C39.4846 29.145 37.5648 29.2178 35.5655 29.2419L35.6378 35.2414ZM47.7555 34.4526C49.8554 34.1922 51.8645 33.8714 53.7894 33.4955L52.6394 27.6067C50.8552 27.9552 48.9835 28.2543 47.0169 28.4983L47.7555 34.4526ZM59.7457 32.0893C61.8054 31.5137 63.7563 30.87 65.6093 30.1671L63.4814 24.5571C61.7988 25.1954 60.0192 25.783 58.1309 26.3106L59.7457 32.0893ZM71.2835 27.6944C73.1999 26.7442 74.9955 25.7301 76.688 24.6676L73.4979 19.5859C71.9686 20.546 70.3478 21.4613 68.6181 22.3189L71.2835 27.6944ZM81.763 21.1295C83.433 19.8457 84.9931 18.5256 86.4677 17.1935L82.4457 12.7412C81.07 13.984 79.632 15.1998 78.1062 16.3727L81.763 21.1295ZM90.8428 13.0011C92.2803 11.5543 93.6577 10.1118 94.9855 8.72339L90.6493 4.57639C89.3126 5.97415 87.9762 7.37346 86.5865 8.77213L90.8428 13.0011Z" fill="#21A60B"/>
</svg>
