<svg width="99" height="37" viewBox="0 0 99 37" fill="none" xmlns="http://www.w3.org/2000/svg">
<path d="M2.62357 6.16C1.82165 6.36788 1.34008 7.18648 1.54796 7.98841C1.75584 8.79033 2.57444 9.2719 3.37636 9.06402L2.62357 6.16ZM98.6768 36.697L93.3993 20.2001L81.7513 33.019L98.6768 36.697ZM3.37636 9.06402C4.33965 8.81431 5.29073 8.57559 6.23002 8.34778L5.52293 5.4323C4.5679 5.66393 3.60158 5.90648 2.62357 6.16L3.37636 9.06402ZM11.9228 7.07122C13.8883 6.66838 15.8003 6.31793 17.663 6.0191L17.1878 3.05698C15.2799 3.36305 13.3255 3.72137 11.3205 4.13231L11.9228 7.07122ZM23.4275 5.24168C25.4073 5.02808 27.3305 4.87858 29.2031 4.79205L29.0646 1.79525C27.1274 1.88476 25.1431 2.03918 23.1057 2.25899L23.4275 5.24168ZM34.99 4.72764C36.9612 4.77831 38.8784 4.90539 40.7501 5.10742L41.072 2.12475C39.1163 1.91363 37.1173 1.78133 35.0671 1.72863L34.99 4.72764ZM46.4426 5.97769C48.3407 6.35619 50.1991 6.81803 52.0276 7.36199L52.883 4.48652C50.9665 3.91639 49.0185 3.43228 47.0293 3.03561L46.4426 5.97769ZM57.4674 9.25243C59.2384 9.95741 60.9915 10.7433 62.7362 11.6092L64.07 8.92205C62.2557 8.02154 60.4279 7.20194 58.577 6.46515L57.4674 9.25243ZM67.824 14.3696C69.4578 15.33 71.0928 16.3607 72.7371 17.4612L74.4057 14.9681C72.7171 13.8379 71.0326 12.7758 69.3443 11.7833L67.824 14.3696ZM77.4945 20.8149C79.0215 21.9433 80.5623 23.1293 82.1231 24.3724L83.9921 22.0257C82.4061 20.7626 80.8366 19.5544 79.2773 18.4022L77.4945 20.8149ZM86.6538 28.0885C88.1121 29.3169 89.5913 30.5915 91.0962 31.9121L93.0749 29.6572C91.5569 28.3251 90.0623 27.0371 88.5864 25.794L86.6538 28.0885ZM2.24718 4.70799C0.643332 5.12375 -0.319803 6.76096 0.0959517 8.3648C0.511707 9.96864 2.14892 10.9318 3.75276 10.516L2.24718 4.70799ZM98.6768 36.697L88.1218 3.70319L64.8258 29.341L98.6768 36.697ZM3.75276 10.516C4.70868 10.2682 5.65215 10.0314 6.58357 9.80552L5.16938 3.97456C4.20649 4.20809 3.23255 4.45256 2.24718 4.70799L3.75276 10.516ZM12.224 8.54067C14.1697 8.14189 16.0605 7.79537 17.9006 7.50016L16.9502 1.57591C15.0198 1.88561 13.0442 2.24786 11.0193 2.66285L12.224 8.54067ZM23.5884 6.73302C25.5394 6.52253 27.432 6.37549 29.2724 6.29045L28.9954 0.296845C27.0259 0.387853 25.011 0.544731 22.9448 0.767643L23.5884 6.73302ZM34.9515 6.22714C36.8832 6.2768 38.7595 6.40126 40.5891 6.59876L41.233 0.633412C39.2352 0.41776 37.1954 0.282845 35.1057 0.229125L34.9515 6.22714ZM46.1493 7.44872C48.0018 7.81815 49.8153 8.26885 51.5999 8.79972L53.3107 3.04879C51.3502 2.46558 49.3574 1.97032 47.3227 1.56457L46.1493 7.44872ZM56.9127 10.6461C58.6437 11.3351 60.3594 12.1041 62.0693 12.9528L64.7369 7.57845C62.8878 6.66067 61.0226 5.82421 59.1317 5.07151L56.9127 10.6461ZM67.0639 15.6627C68.6704 16.6071 70.2806 17.6221 71.9028 18.7078L75.24 13.7215C73.5293 12.5765 71.82 11.4987 70.1044 10.4902L67.0639 15.6627ZM76.603 22.0213C78.114 23.1378 79.6404 24.3127 81.1886 25.5457L84.9265 20.8523C83.3281 19.5793 81.7441 18.3599 80.1688 17.1958L76.603 22.0213ZM85.6874 29.2358C87.137 30.4568 88.6085 31.7247 90.1068 33.0396L94.0643 28.5297C92.5398 27.1919 91.0373 25.8972 89.5528 24.6468L85.6874 29.2358Z" fill="#21A60B"/>
</svg>
