<svg width="73" height="73" viewBox="0 0 73 73" fill="none" xmlns="http://www.w3.org/2000/svg">
<path d="M30.2932 5.54084L35.2613 19.2116L26.5034 22.3942L25.749 20.3183L32.0303 18.0356L30.6816 14.3242L25.001 16.3885L24.2466 14.3126L29.9272 12.2482L27.8167 6.44082L30.2932 5.54084Z" fill="#1F1E1E"/>
<path d="M11.3616 17.9522C11.9697 17.0774 12.6891 16.453 13.5199 16.079C14.3507 15.7051 15.2351 15.5817 16.173 15.7089C17.1083 15.84 18.0386 16.2272 18.9639 16.8703C19.8892 17.5135 20.5783 18.2519 21.031 19.0855C21.481 19.9231 21.6755 20.7963 21.6145 21.7054C21.5536 22.6144 21.219 23.5063 20.611 24.3811C20.003 25.2559 19.2836 25.8803 18.4528 26.2543C17.622 26.6282 16.737 26.7483 15.7978 26.6145C14.856 26.4846 13.9224 26.098 12.9971 25.4549C12.0717 24.8117 11.386 24.0727 10.9399 23.2379C10.491 22.4069 10.2971 21.5369 10.3581 20.6279C10.4191 19.7189 10.7536 18.8269 11.3616 17.9522ZM13.0448 19.1394C12.7151 19.6137 12.5697 20.1008 12.6086 20.6007C12.6514 21.1032 12.8403 21.5863 13.1755 22.0499C13.5079 22.5174 13.9463 22.9403 14.4906 23.3186C15.0388 23.6996 15.5899 23.9645 16.1439 24.1132C16.6991 24.2684 17.2197 24.2785 17.7057 24.1435C18.1916 24.0084 18.5995 23.7037 18.9292 23.2294C19.267 22.7434 19.4158 22.2472 19.3757 21.7407C19.3329 21.2382 19.1434 20.7518 18.8071 20.2816C18.472 19.818 18.0303 19.3957 17.4821 19.0147C16.9378 18.6363 16.39 18.3709 15.8387 18.2183C15.2846 18.0697 14.7646 18.0629 14.2787 18.1979C13.7939 18.3396 13.3826 18.6534 13.0448 19.1394Z" fill="#1F1E1E"/>
<path d="M5.59781 36.2708C5.5712 35.2058 5.78245 34.2769 6.23155 33.4842C6.68064 32.6915 7.32108 32.0692 8.15286 31.6175C8.98476 31.1704 9.96398 30.9328 11.0905 30.9047C12.2171 30.8765 13.2093 31.0649 14.0672 31.4697C14.9252 31.8793 15.5983 32.4687 16.0864 33.238C16.5745 34.0073 16.8319 34.9245 16.8585 35.9895C16.8851 37.0545 16.6739 37.9834 16.2248 38.7761C15.7757 39.5688 15.1328 40.1887 14.2962 40.6359C13.4596 41.0878 12.4781 41.3278 11.3516 41.356C10.225 41.3841 9.23511 41.1933 8.38182 40.7836C7.52863 40.3787 6.85799 39.7916 6.36988 39.0222C5.88176 38.2529 5.62441 37.3358 5.59781 36.2708ZM7.65718 36.2336C7.6716 36.811 7.84223 37.2899 8.16906 37.6701C8.50062 38.0502 8.93857 38.3282 9.48291 38.504C10.0274 38.6846 10.6309 38.7666 11.2936 38.7501C11.961 38.7334 12.5621 38.6213 13.0968 38.4137C13.6364 38.2108 14.0623 37.9113 14.3745 37.5151C14.6867 37.1189 14.8356 36.6321 14.8211 36.0546C14.8064 35.4629 14.6331 34.9747 14.3014 34.5899C13.9699 34.2098 13.5295 33.9295 12.9803 33.749C12.436 33.5731 11.8301 33.4936 11.1627 33.5102C10.5 33.5268 9.90127 33.6365 9.36639 33.8393C8.83163 34.0468 8.40817 34.3487 8.09599 34.7449C7.78867 35.1457 7.6424 35.6419 7.65718 36.2336Z" fill="#1F1E1E"/>
<path d="M11.3591 53.8784C10.8355 53.2 10.5411 52.4583 10.4759 51.6532C10.4108 50.8482 10.5899 50.0341 11.0132 49.2109C11.4365 48.3877 12.1223 47.6102 13.0706 46.8782C14.0301 46.1376 14.9612 45.6701 15.8639 45.4757C16.7732 45.2822 17.6049 45.3252 18.3588 45.6045C19.1165 45.881 19.7514 46.3509 20.2635 47.0144C20.654 47.5204 20.889 48.0029 20.9683 48.4621C21.0513 48.9184 21.0466 49.3347 20.9543 49.711C20.8657 50.0844 20.757 50.4046 20.6281 50.6716L20.6932 50.7559L24.9998 47.4317L26.5751 49.4726L15.0608 58.3603L13.5159 56.3587L14.8764 55.3085L14.781 55.1848C14.4901 55.2419 14.1499 55.2623 13.7604 55.2459C13.3747 55.2266 12.9735 55.1175 12.5569 54.9188C12.1403 54.72 11.741 54.3732 11.3591 53.8784ZM13.4672 53.1574C13.7999 53.5884 14.1997 53.8661 14.6664 53.9903C15.1369 54.1116 15.6428 54.089 16.1841 53.9224C16.7254 53.7558 17.2753 53.4569 17.8337 53.0259C18.3922 52.5948 18.8168 52.1414 19.1076 51.6658C19.4013 51.1938 19.5453 50.7178 19.5396 50.2378C19.5368 49.7614 19.3661 49.304 19.0276 48.8655C18.6776 48.4119 18.2673 48.1245 17.7968 48.0032C17.3263 47.8818 16.8238 47.9049 16.2891 48.0724C15.7544 48.2398 15.2191 48.5304 14.6831 48.9441C14.1434 49.3607 13.7211 49.8093 13.4161 50.2899C13.1179 50.7714 12.9641 51.2579 12.9548 51.7496C12.9521 52.2421 13.123 52.7114 13.4672 53.1574Z" fill="#1F1E1E"/>
<path d="M22.8772 63.4549L27.1658 53.4241L29.5298 54.4349L25.2412 64.4656L22.8772 63.4549ZM28.963 52.5087C28.5886 52.3486 28.3195 52.0868 28.1557 51.7232C27.9937 51.3553 27.9881 50.995 28.1389 50.6424C28.2915 50.2854 28.5558 50.0405 28.9318 49.9077C29.3097 49.7706 29.6859 49.7821 30.0603 49.9422C30.4391 50.1041 30.7072 50.3681 30.8649 50.7342C31.0287 51.0977 31.0343 51.458 30.8816 51.815C30.7309 52.1677 30.4665 52.4125 30.0887 52.5496C29.717 52.6843 29.3418 52.6706 28.963 52.5087Z" fill="#1F1E1E"/>
<path d="M34.8278 67.4879L32.7329 56.7819L35.1446 56.31L35.5005 58.1292L35.626 58.1046C35.729 57.4476 36.0048 56.8967 36.4533 56.4519C36.9009 56.0025 37.4825 55.7078 38.1981 55.5678C38.923 55.4259 39.5686 55.4829 40.1349 55.7388C40.7049 55.9891 41.1513 56.3963 41.4739 56.9604L41.5854 56.9386C41.706 56.2974 42.0129 55.7452 42.5061 55.2821C43.003 54.8134 43.6394 54.5031 44.4154 54.3512C45.4005 54.1585 46.2653 54.3125 47.0098 54.8133C47.7543 55.3142 48.2434 56.1617 48.4771 57.3559L49.8832 64.5421L47.353 65.0371L46.0233 58.2413C45.8933 57.5768 45.6217 57.1258 45.2085 56.8882C44.7945 56.646 44.3319 56.5749 43.8207 56.6749C43.212 56.794 42.773 57.0777 42.5037 57.526C42.2381 57.9688 42.1644 58.4922 42.2826 59.0963L43.5892 65.7736L41.1148 66.2578L39.7646 59.3574C39.6564 58.8044 39.4028 58.3957 39.0036 58.1312C38.6092 57.8659 38.1447 57.7855 37.6104 57.89C37.2479 57.961 36.9362 58.1185 36.6752 58.3625C36.4132 58.6019 36.2267 58.9062 36.1156 59.2753C36.0036 59.6398 35.9908 60.0427 36.0771 60.4842L37.351 66.9942L34.8278 67.4879Z" fill="#1F1E1E"/>
<path d="M60.6771 55.0955C59.9937 55.9495 59.226 56.5449 58.3741 56.882C57.5214 57.2124 56.6348 57.2821 55.7142 57.0911C54.7899 56.8972 53.8823 56.4438 52.9914 55.7308C52.1153 55.0296 51.4795 54.2479 51.084 53.3856C50.6878 52.5167 50.546 51.633 50.6586 50.7346C50.7674 49.8332 51.1473 48.9759 51.7982 48.1626C52.2183 47.6376 52.6997 47.2103 53.2425 46.8806C53.7846 46.5443 54.3748 46.3373 55.0129 46.2598C55.6541 46.1786 56.3292 46.2519 57.0383 46.4798C57.7437 46.7047 58.4697 47.116 59.2165 47.7136L59.832 48.2062L54.2449 55.1875L52.8919 54.1047L56.9391 49.0475C56.5517 48.7435 56.1431 48.5531 55.7135 48.4761C55.2802 48.3961 54.8598 48.4327 54.4524 48.5857C54.0479 48.735 53.6918 49.0018 53.3841 49.3863C53.0557 49.7966 52.867 50.237 52.8181 50.7072C52.7656 51.1746 52.8306 51.6238 53.0131 52.0549C53.195 52.4794 53.4748 52.8459 53.8526 53.1543L55.0337 54.0995C55.5291 54.496 56.0267 54.7456 56.5265 54.8485C57.0227 54.9484 57.4952 54.9112 57.9441 54.7367C58.3893 54.5593 58.7864 54.2525 59.1355 53.8163C59.3692 53.5243 59.5401 53.2274 59.6481 52.9257C59.7525 52.6211 59.7928 52.3168 59.7692 52.0129C59.7456 51.709 59.6491 51.4165 59.4799 51.1355L61.1905 49.4299C61.5912 49.9446 61.8433 50.5162 61.9467 51.1448C62.0494 51.7667 61.9967 52.4159 61.7888 53.0925C61.5772 53.7661 61.2066 54.4338 60.6771 55.0955Z" fill="#1F1E1E"/>
<path d="M56.4225 36.0937L58.3895 36.3869L57.4651 42.5897L55.4982 42.2966L56.4225 36.0937ZM53.1413 40.3799L53.5203 37.837L63.6499 39.3465C63.9917 39.3975 64.2617 39.3851 64.4597 39.3093C64.6537 39.2281 64.7964 39.1057 64.8878 38.9422C64.9792 38.7787 65.0406 38.5916 65.072 38.3808C65.0957 38.2216 65.1056 38.0747 65.1017 37.9401C65.0986 37.8008 65.0928 37.6946 65.0846 37.6216L67.1364 37.4893C67.163 37.6321 67.1856 37.8341 67.2041 38.0954C67.2233 38.352 67.2107 38.6613 67.1663 39.0233C67.0902 39.663 66.9087 40.2223 66.6218 40.7014C66.3303 41.1798 65.9375 41.5353 65.4432 41.768C64.9497 41.9961 64.3661 42.0575 63.6924 41.9523L53.1413 40.3799Z" fill="#1F1E1E"/>
<path d="M66.5034 29.1534L56.1102 32.4687L55.3527 30.0937L57.0848 29.5411L57.0503 29.4329C56.3899 29.4348 55.8239 29.2575 55.3524 28.901C54.8749 28.5414 54.5412 28.0639 54.3512 27.4684C54.3081 27.3331 54.2666 27.1798 54.2269 27.0086C54.1813 26.8343 54.1517 26.6872 54.1383 26.5672L56.3915 25.8485C56.3885 25.9637 56.4095 26.1385 56.4543 26.3726C56.4933 26.6038 56.5458 26.8231 56.612 27.0306C56.7545 27.4771 56.9795 27.8477 57.2872 28.1422C57.5889 28.4336 57.9412 28.6268 58.3443 28.7219C58.7474 28.817 59.1699 28.794 59.612 28.653L65.722 26.704L66.5034 29.1534Z" fill="#1F1E1E"/>
<path d="M60.438 16.7137L52.3116 23.9916L50.5963 22.0764L58.7228 14.7984L60.438 16.7137ZM50.2959 24.0617C50.5675 24.365 50.7007 24.716 50.6955 25.1148C50.6868 25.5167 50.5396 25.8456 50.2539 26.1014C49.9647 26.3604 49.6216 26.4706 49.2247 26.432C48.8243 26.3966 48.4883 26.2272 48.2166 25.9238C47.9418 25.617 47.8103 25.2643 47.8222 24.866C47.8274 24.4672 47.9746 24.1384 48.2638 23.8793C48.5495 23.6235 48.8926 23.5133 49.293 23.5487C49.6868 23.5838 50.021 23.7548 50.2959 24.0617Z" fill="#1F1E1E"/>
<path d="M46.947 6.87271C47.9705 7.24467 48.7678 7.7888 49.3387 8.5051C49.9052 9.21978 50.2425 10.0451 50.3507 10.9812C50.4528 11.9201 50.3155 12.908 49.9387 13.9448C49.5603 14.9862 49.026 15.8323 48.3361 16.4833C47.6445 17.1388 46.8529 17.5564 45.9613 17.7362C45.0637 17.9189 44.1143 17.8282 43.113 17.4644C42.2809 17.1619 41.6002 16.7408 41.0709 16.2008C40.5356 15.6637 40.1777 15.0475 39.9971 14.3522C39.815 13.6613 39.8314 12.9368 40.0465 12.1786L42.3561 13.018C42.27 13.5459 42.3429 14.0384 42.5748 14.4954C42.8006 14.9554 43.205 15.2912 43.788 15.5031C44.2819 15.6826 44.7643 15.7068 45.2352 15.5756C45.7044 15.4489 46.1334 15.1766 46.522 14.7586C46.9062 14.339 47.2237 13.7844 47.4743 13.0946C47.7282 12.3959 47.8442 11.758 47.8223 11.1807C47.7987 10.6079 47.6515 10.1187 47.3808 9.713C47.1041 9.31014 46.7142 9.01735 46.2114 8.8346C45.8554 8.70522 45.5129 8.65635 45.1841 8.68796C44.8491 8.72242 44.5391 8.83393 44.2539 9.02249C43.9688 9.21106 43.7235 9.47708 43.518 9.82057L41.2084 8.98123C41.5299 8.27689 41.9772 7.71148 42.5503 7.28499C43.1218 6.86296 43.7832 6.60959 44.5344 6.5249C45.2839 6.44465 46.0881 6.56059 46.947 6.87271Z" fill="#1F1E1E"/>
</svg>
