<svg width="33" height="32" viewBox="0 0 33 32" fill="none" xmlns="http://www.w3.org/2000/svg">
<path d="M9.70008 27.467C11.7001 28.667 14.1001 29.3337 16.5001 29.3337C23.8334 29.3337 29.8334 23.3337 29.8334 16.0003C29.8334 8.66699 23.8334 2.66699 16.5001 2.66699C9.16675 2.66699 3.16675 8.66699 3.16675 16.0003C3.16675 18.4003 3.83341 20.667 4.90008 22.667L3.75341 27.075C3.69426 27.3025 3.69633 27.5417 3.75941 27.7682C3.8225 27.9947 3.94436 28.2005 4.11263 28.3647C4.28091 28.5289 4.48961 28.6457 4.71759 28.7033C4.94557 28.7608 5.1847 28.757 5.41075 28.6923L9.70008 27.467Z" stroke="#1F1E1E" stroke-width="1.5" stroke-miterlimit="10" stroke-linecap="round" stroke-linejoin="round"/>
<path d="M22.5 19.7973C22.5 20.0133 22.452 20.236 22.3493 20.452C22.2446 20.6752 22.1071 20.8815 21.9413 21.064C21.6467 21.388 21.3227 21.6213 20.9547 21.772C20.5947 21.9227 20.204 22 19.784 22C19.1707 22 18.516 21.856 17.824 21.5627C17.0924 21.2455 16.3991 20.8465 15.7573 20.3733C15.0593 19.8635 14.4006 19.3019 13.7867 18.6933C13.1793 18.0828 12.619 17.4272 12.1107 16.732C11.6435 16.0958 11.2482 15.4099 10.932 14.6867C10.644 14 10.5 13.3467 10.5 12.724C10.5 12.316 10.572 11.9267 10.716 11.5667C10.86 11.2 11.0893 10.864 11.408 10.564C11.792 10.1853 12.212 10 12.6573 10C12.8253 10 12.9933 10.036 13.144 10.108C13.3 10.18 13.4373 10.288 13.5467 10.444L14.9413 12.4067C15.048 12.556 15.128 12.6947 15.1813 12.8267C15.2347 12.952 15.2653 13.0787 15.2653 13.192C15.2636 13.3432 15.2197 13.491 15.1387 13.6187C15.0461 13.7748 14.9331 13.9178 14.8027 14.044L14.3453 14.5187C14.3135 14.5498 14.2886 14.5872 14.272 14.6285C14.2555 14.6699 14.2478 14.7142 14.2493 14.7587C14.2493 14.8053 14.256 14.848 14.268 14.896C14.2853 14.944 14.304 14.98 14.316 15.016C14.4227 15.2147 14.6093 15.472 14.8747 15.784C15.1453 16.096 15.4333 16.4147 15.7453 16.732C16.0707 17.0507 16.3827 17.344 16.7013 17.6147C17.0133 17.8773 17.272 18.0573 17.476 18.1653L17.5853 18.2147C17.6332 18.2318 17.6838 18.2399 17.7347 18.2387C17.7807 18.2397 17.8264 18.231 17.8688 18.2134C17.9113 18.1957 17.9496 18.1693 17.9813 18.136L18.4373 17.6853C18.588 17.536 18.732 17.4227 18.8707 17.3493C18.9982 17.2681 19.1461 17.2246 19.2973 17.224C19.4235 17.2259 19.5481 17.2526 19.664 17.3027C19.796 17.356 19.9347 17.4333 20.084 17.536L22.0733 18.9467C22.2175 19.0404 22.3321 19.1731 22.404 19.3293C22.4663 19.4775 22.4989 19.6366 22.5 19.7973Z" stroke="#1F1E1E" stroke-width="1.5" stroke-miterlimit="10"/>
</svg>
